<?xml version="1.0" encoding="UTF-8"?>
<svg id="Calque_2" data-name="Calque 2" xmlns="http://www.w3.org/2000/svg" viewBox="0 0 142.3 143.28">
  <defs>
    <style>
      .cls-1 {
        fill: #1d1d1b;
        stroke-width: 0px;
      }
    </style>
  </defs>
  <g id="Calque_1-2" data-name="Calque 1">
    <path class="cls-1" d="m113.1,65.48c11.48-7.43,23.12-17.04,23.12-35.27C136.22,6.58,113.78,0,101.46,0h-33.24c2.7,1.18,4.39,4.73,4.39,13.16v89.12c-2.31,3.15-4.34,6.32-6.11,9.55-.38.69-.74,1.38-1.1,2.08-8.71,15.3-13.09,27.33-31.47,27.33h-7.59c-4.05,0-5.23-5.4-5.23-11.14V13.16c0-8.44,1.69-11.98,4.39-13.16H0c2.7,1.18,4.39,4.73,4.39,13.16v116.94c0,8.44-1.69,11.81-4.39,13.16h60.91s0,0,0,0h1.03c-.68-3.06-.46-7.04.22-11.24,1.33-6.3,3.7-12.63,7.04-18.71,1.04-1.89,2.18-3.77,3.41-5.63v22.42c0,8.44-1.69,11.98-4.39,13.16h31.56c29.53,0,42.53-15.53,42.53-35.94v-.68c-.34-22.11-16.54-32.91-29.19-41.18Zm-23.79-52.31c0-5.74.17-11.14,4.05-11.14h.34c17.55,0,25.65,12.15,25.65,27.51,0,14.18-6.24,23.63-13.16,31.39-4.89-3.54-8.44-6.75-8.44-10.8,0-1.01.68.84,2.53.84,1.35,0,2.36-.84,2.36-2.36,0-1.01-.84-2.19-2.53-2.19-2.03,0-3.71,1.86-3.71,4.73,0,4.73,2.87,8.78,6.92,12.99-5.74,5.91-9.97,10.11-14.01,16.09V13.16Zm4.22,128.08h-.17c-3.71,0-4.05-5.4-4.05-11.14v-41.68c0-8.61,8.61-13.67,18.39-19.74,8.27,8.44,17.89,18.9,17.89,38.64,0,31.56-22.11,33.92-32.06,33.92Z"/>
  </g>
</svg>