<?xml version="1.0" encoding="UTF-8"?>
<svg id="Calque_2" data-name="Calque 2" xmlns="http://www.w3.org/2000/svg" viewBox="0 0 110.17 110.17">
  <defs>
    <style>
      .cls-1 {
        fill: none;
        stroke: #fff;
        stroke-miterlimit: 10;
        stroke-width: 3px;
      }

      .cls-2 {
        fill: #fff;
        stroke-width: 0px;
      }
    </style>
  </defs>
  <g id="Calque_1-2" data-name="Calque 1">
    <g>
      <path class="cls-2" d="m55.09,3c28.72,0,52.09,23.37,52.09,52.09s-23.37,52.09-52.09,52.09S3,83.81,3,55.09,26.37,3,55.09,3m0-3C24.66,0,0,24.66,0,55.09s24.66,55.09,55.09,55.09,55.09-24.66,55.09-55.09S85.51,0,55.09,0h0Z"/>
      <line class="cls-1" x1="37.84" y1="38.77" x2="37.84" y2="76"/>
      <circle class="cls-1" cx="37.84" cy="28.4" r=".42"/>
      <line class="cls-1" x1="51.3" y1="38.77" x2="51.3" y2="76"/>
      <path class="cls-1" d="m77.41,76v-23.31c0-10.38-7.72-14.18-12.42-14.18-5.7,0-13.69,4.93-13.69,15.15"/>
    </g>
  </g>
</svg>