<?xml version="1.0" encoding="UTF-8"?>
<svg id="Calque_2" data-name="Calque 2" xmlns="http://www.w3.org/2000/svg" viewBox="0 0 1713.23 1893.59">
  <defs>
    <style>
      .cls-1 {
        fill: none;
        stroke: #fff;
        stroke-linecap: round;
        stroke-miterlimit: 10;
        stroke-width: 6px;
      }
    </style>
  </defs>
  <g id="Calque_2-2" data-name="Calque 2">
    <g>
      <path class="cls-1" d="m1066.96,462.1c-6.69,49.9-20.54,110.15-47,141.02-22.14,25.83-51.26,40.07-116.34,59.25s-103.25,13.21-120.5,5.09c-25.3-11.91-56.62-67.77-63.12-84.55s-15.32-57.76-29.8-97.25c-25.11-68.5-15.05-97.98-8.54-124.36s-.34-42.13-3.82-53.96c-3.48-11.83-6.29-24.7,0-36.88,9-17.42,17.4-49.4,22.96-72.37s30.16-63.7,54.28-82.11"/>
      <path class="cls-1" d="m778.2,107.97c34.37-4.66,101.94-1.17,145.05,37.86,43.11,39.03,43.69,52.43,67.57,90.29,23.88,37.86,62.33,100.2,118.25,128.74s56.51,87.38,49.52,109.52"/>
      <path class="cls-1" d="m1061.4,496.36c3.6,7.02,16.71,18.31,28.99,8.68,12.28-9.62,18.23-26.43,20.57-35.76"/>
      <path class="cls-1" d="m768.8,316.53c3.85,12.41-2.57,40.22-8.56,54.76-5.99,14.55-15.83,41.5-19.68,47.92-3.85,6.42-10.7,13.26-7.7,23.96,2.99,10.7,18.4,18.4,27.38,23.53"/>
      <path class="cls-1" d="m780.35,466.7c-8.98-5.13-.86-12.84,8.13-12.84s16.26,2.14,16.26,8.56"/>
      <path class="cls-1" d="m739.89,539.07c10.36-15.12,22.41-24.93,26.61-23.25s9.7,6.44,11.71,6.44,10.16-6.54,12.39-6.63,57.96,18.67,75.33,27.35c0,0-41.73,20.45-79.82,18.2s-46.21-22.13-46.21-22.13Z"/>
      <path class="cls-1" d="m741.45,541.78c.72-10.74,16.08-11.11,22.24-11.11s14,4.76,20.73,4.76,12.32-3.08,23.53-2.52,41.73,5.6,57.98,10.08"/>
      <path class="cls-1" d="m748.99,280.17c-16.48-14.98-26.59-19.33-42.19-19.47-18.72-.17-28.96,9.75-28.96,9.75"/>
      <path class="cls-1" d="m751.04,285.17c.94,4.24-4.8,8.99-15.04,3.25-10.24-5.74-20.72-10.74-30.96-9.74-10.24,1-26.35,6.29-30.4,15.01"/>
      <path class="cls-1" d="m823.4,280.3c16.43-20.36,53.23-27.15,89.31-18.94,36.08,8.22,50.51,27.15,57.23,35.01,6.72,7.86,7.44,13.22,5.29,15.36-2.14,2.14-8.01-1.8-13.22-6.14-10.22-8.51-20.72-13.41-38.08-20.57-20.33-8.38-43.96-8.42-59.45-4.02-10.98,3.12-24.65,7.33-32.15,5.1"/>
      <path class="cls-1" d="m764.9,103.55c-20.89-3.8-10.77-20.89,5.06-27.85,15.83-6.96,64.79-18.99,129.89-2.53s106.88,68.37,150.56,109.52c43.68,41.15,83.25,72.07,111.26,95.86,28.01,23.79,89.15,57.14,55.78,128.03"/>
      <path class="cls-1" d="m1232.55,500.72c-9.5-46.21-16.27-92.66-18.17-132.55-1.9-39.88-10.13-80.4-24.06-122.81-13.93-42.42-33.55-117.12-115-191.18-81.45-74.07-192.03-52.54-228.75-29.12"/>
      <path class="cls-1" d="m1170.24,188.03c14.34-21.62,16.53-58.84-12.82-92.24-29.35-33.4-98.17-62.75-172.06-75.91s-109.75-7.59-142.2,13.16c0,0-36.64-16.99-73.19,14.44-36.56,31.43-62.19,72.05-78.63,102.04-16.44,29.98-45.46,162.48-49.81,185.7-4.35,23.21-6.46,106.98,11.61,207.78,3.92,21.86,19.5,74.32,19.62,116.29s-21.91,106.82-54.44,138.93c-32.53,32.11-89.19,44.9-89.19,44.9"/>
      <path class="cls-1" d="m1187.21,235.74c2.59-32.66-2.41-123.18-187.91-213.16"/>
      <path class="cls-1" d="m1032.62,297.35c-1.16,39.29,3.13,67.56,12.84,103.78,3.52,13.13,11.58,42.04,21.49,60.98,10.79,20.63,28.88,33.95,32.36,53.54,6.19,34.82-18.5,52.64,0,92.39"/>
      <path class="cls-1" d="m1113.82,505.31c7.49-23.52,9.42-40.47-10.24-60.9-20.83-21.64-36.62-29.67-49.33-58.96-9.67-22.3-19.7-52.65-21.63-88.1"/>
      <path class="cls-1" d="m1298.82,991.73c-11.06-23.22-27.35-47.27-43.2-58.33s-26.54-36.49-40.54-61.18-20.27-37.22-25.8-68.92-16.95-51.23-17.69-66.34,4.79-55.28,5.9-69.29.74-19.9-.37-23.96,10.32-3.69,17.69,0,17.32,14.37,23.22,36.85,8.48,33.91,8.85,42.01c0,0,5.46,16.95,6.78,26.54s1.32,23.59,6.48,26.54,21.74-.55,25.8.19c0,0,3.32-8.48,5.53-9.77,0,0,4.24-31.15,6.82-35.21s-.37-7.56-.37-11.43-4.61-22.49-3.32-40.92c0,0-13.82-29.49-19.72-50.88,0,0-10.69-12.17-19.54-26.73-8.85-14.56-15.67-25.62-12.72-37.79s3.73-13.21,6.13-13.21,6.42.14,20.6,11.75"/>
      <path class="cls-1" d="m1269.37,945.7c-9.56,9.91-26.21,25.47-21.14,30.18s24.08,3.86,35.83,7.6,19.9,15.92,34.38,14.11,43.79-14.47,50.66-29.31c6.88-14.84-2.17-33.65,9.05-46.68,11.22-13.03,47.77-48.49,50.66-47.77s11.94,50.66,16.65,55.73c4.7,5.07,12.67,9.41,12.67,15.2s8.32,36.91,19.18,61.16c10.86,24.25,15.92,37.63,15.92,37.63,0,0-9.05-31.84-60.07-17.37-51.02,14.47-91.91,46.68-127.38,27.86-35.46-18.82-36.55-48.13-42.7-56.09s-17.23-18.5-15.78-24.2"/>
      <path class="cls-1" d="m1426.21,875.17c1.49-23.26-3.49-61.13-6.44-83.8-2.95-22.68-3.17-67.12-3.4-75.06-.23-7.94-9.98-21.09-12.7-29.03s-14.29-51.02-17.23-61.23c-2.95-10.2-3.4-17.01-4.76-20.64-1.36-3.63-20.64-21.09-24.72-25.85s-11.11-17.23-15.65-20.64c-4.54-3.4-32.2-20.18-34.47-22.22s-14.29-14.74-16.55-16.1,0,4.31,0,4.31c0,0-7.03,5.44-7.48,12.93s-2.04,19.73,12.25,29.93,25.62,16.55,27.44,19.73,3.85,13.38,9.75,20.41,13.38,13.38,15.65,16.1c2.27,2.72-3.85,19.73,4.08,32.2,0,0-21.58,13.62-22.8,16.37s-5.64-24.22-5.64-24.22"/>
      <path class="cls-1" d="m1286.81,528.46c-11.53-7.09-37.61-26.91-42.57-30.3s-8.23-7.56-9.07-5.48,0,6,0,6c0,0-7.88,4.96-7.88,11.61s.38,13.17,7.88,22.03c7.5,8.87,32.8,25.56,38.54,33.38s18.25,25.3,31.29,37.29l18.52,45.38s6.71-8.33,24.22-9.9"/>
      <path class="cls-1" d="m1239.25,494.25c3.11-3.68,4.57-7.15,9.45-2.12,4.88,5.03,11.41,14.64,14.24,19.71"/>
      <path class="cls-1" d="m1307.08,697.79c-6.93-8.07-11.8-36.24-11.8-36.24-4.63-9.76-12.77-45.37-12.77-45.37-5.7-9.27-17.96-36.83-21.13-40.73s-12.02-13.77-12.02-13.77c0,0-12.15-17-12.15-27.18"/>
      <path class="cls-1" d="m1019.96,603.13c-8.41,45.09-3.97,67.99,41.44,113.79s66.01,78.41,92.12,134.65c20.45,44.04,48.35,151.79,101.97,193.88"/>
      <path class="cls-1" d="m1231.79,527.76c.75,8.36-1.46,21.16-1.46,21.16"/>
      <path class="cls-1" d="m1224.76,581.62c-6.09,14.74-12.88,40.2-11.99,61.09.83,19.4,11.6,63.53,22.41,82.97,7.62,13.71,22.65,32.11,36.3,40.41"/>
      <path class="cls-1" d="m1263.06,997.95c-13.26,4.11-11.64,7.26-11.18,9.99s4.5,21.41,5.44,26.88-6.35,18.68-3.16,32.34,11.39,23.69,15.94,34.17,10.02,39.63,14.12,55.12,15.03,53.3,35.08,98.4c20.04,45.1,21.87,70.15,30.52,91.11,8.66,20.96,17.31,59.22,19.59,79.26,2.28,20.04,13.67,81.09,47.38,126.64,33.71,45.55,39.97,78.04,51.72,86.55"/>
      <path class="cls-1" d="m1440.36,915.58c32.1,8.68,65.1,19.29,80.26,51.23s8.03,40.41,10.26,62.71c2.23,22.3,21.41,65.12,31.22,81.62s9.37,27.65,15.16,34.79c5.8,7.14,13.38,20.52,21.85,32.11s30.77,52.63,48.17,105.25,36.57,57.09,48.61,98.56c12.04,41.48,10.7,53.97,13.83,69.57s-8.92,38.8-14.27,59.76c-5.35,20.96-22.75,83.4-40.14,108.82-17.39,25.42-35.68,38.36-46.83,46.38s-53.97,8.47-67.34,11.15-21.41-3.12-37.46-7.58c-16.06-4.46-33.9-19.84-47.28-31.55-13.38-11.71-19.62-27.77-38.8-38.47-19.18-10.7-54.41-34.34-60.21-44.15-5.8-9.81-9.81-35.68-12.49-39.69-2.68-4.01-26.65-26.54-27.35-39.11s6.99-34.24,0-54.5-20.38-50.84-14.67-98.53c2.05-17.14,4.4-49.24-9.56-70.75"/>
      <path class="cls-1" d="m865.37,15.85s-17.23-8.25-36.7-3.06c-19.47,5.19-52.13,29.55-52.13,29.55"/>
      <path class="cls-1" d="m1061.4,716.91c-4.18,61.65,7.11,115.7,26.6,156.91,19.5,41.21,64.65,122.28,68.75,201.29s5.13,191.89-68.75,301.68"/>
      <path class="cls-1" d="m1086.18,350.73c12.81,35.32,23.41,47.76,45.65,80.63,22.24,32.87,16.02,85.88,4.47,130.01s-16.94,109.7-4.47,155.54"/>
      <path class="cls-1" d="m1088,873.82c-9.72,51.03-7.5,130.27,12.34,197.06s66.25,158.49,63.98,206.03,2.26,115.47-73.58,174.34"/>
      <path class="cls-1" d="m1119.98,788.41c-8.87,47.01,18.3,182.85,77.17,306.24"/>
      <path class="cls-1" d="m1210.48,987.23c16.11,81.39,14,200.26-46.08,268.18"/>
      <path class="cls-1" d="m1082.41,949.76c-25.63,72.45-35.82,220.75-31.29,283.01s2.26,140.37-18.68,209.43"/>
      <path class="cls-1" d="m1219.05,1089c15.46,92.83,100.37,176.6,100.37,242.26"/>
      <path class="cls-1" d="m1212.69,1393.52c56.91-49.81,78.37-113.82,65.38-167.85"/>
      <path class="cls-1" d="m783.12,667.46c-2.96,47.39,8.78,71.6,15.3,98.62s36.52,143.1,23.48,261.79-28.9,194.4,24.68,348.92"/>
      <path class="cls-1" d="m737.52,616.14c-8.23,92.19-52.58,218.7-44.75,282.61s20.87,83.72,69.13,123.38"/>
      <path class="cls-1" d="m681.95,460.28c-12.93,41.91-19.88,98.81,33.22,151.28"/>
      <path class="cls-1" d="m476.85,923.34c106.2-37.05,225.19-119.39,215-340.72"/>
      <path class="cls-1" d="m870.34,1407.4c-110.71-72.86-145.96-153.48-138.21-412"/>
      <path class="cls-1" d="m715.17,568.05c1.24,83.63-53.1,255.28-61.74,345.42s19.76,167.4,49.39,282.51,21.03,191.67,12.37,222.54"/>
      <path class="cls-1" d="m809.71,816.58c49.28,21.54,145.87,47.02,243.73,0"/>
      <path class="cls-1" d="m254.98,835.36c12.93-12.53,7.88-31.53,7.88-31.53,2.63-.4,5.46-4.85,5.46-4.85,10.71-.4,16.57-9.7,16.57-9.7,6.06,5.66,16.37,6.87,16.37,6.87,13.95,9.7,28.5,3.23,32.13.2s2.7-8.89,2.7-8.89c0,0,4.78-4.45,1.14-5.86s-12.33-5.05-24.45-11.52-16.17-10.51-25.26-11.12-48.82,11.16-53.55,12.61-6.18,9.82-9.09,18.19-21.46,80.75-23.64,89.84.73,28.73-3.27,60.38c-4,31.64-3.27,57.47-1.82,78.2s1.45,43.65,14.91,58.56,92.02,47.65,115.3,44.01,17.1-9.46,39.28-23.64,38.19-20.37,46.92-37.46,33.1-53.47,38.92-60.74,8.73-37.46,10.18-52.01,13.46-44.01,15.18-54.92-3.18-35.28-5.36-52.74,6.18-45.1-2.55-41.1c-8.73,4-22.55,7.64-34.92,34.19s-12.37,44.01-13.09,65.11-9.46,33.46-18.91,41.83c0,0-2.42-30.39-5.7-36.95,0,0,4.73-36.78-.36-50.26,0,0,11.29-20.03,10.56-44.07,0,0,7.28-8.74,9.11-28.04s20.03-19.67,23.67-34.6-6.19-20.76-8.74-20.76-17.85,1.46-25.86,8.38"/>
      <path class="cls-1" d="m296.99,830.09c0-4.79-2.08-8.33-2.08-8.33,0,0,7.74-10.45,9.8-23.55"/>
      <path class="cls-1" d="m197.61,1038.74c-14.13,1.22-24.33,15.24-18.59,28.62s21.67,38.25,71.37,54.67,71.29,22.4,94.9,17.66c7.1-1.43,17.29-7.31,22.33-15.29,8.67-13.73,8.94-20.78,1.69-29.6"/>
      <path class="cls-1" d="m185.74,1079.44c-9.42,37.83-18.87,49.22-21.82,61.83-2.95,12.61,4.13,17.33,17.71,24.41s10.04,21.25,21.84,28.93c11.81,7.68,31.29,0,51.95,0s36.01-1.77,49-5.9,44.17-24.28,51.6-53.47"/>
      <path class="cls-1" d="m196.94,1030.53c-29.48,14.12-65.49,58.4-64.9,69.62.59,11.22-49.26,82.19-57.65,105.98-2.67,7.57-8.41,14.53-8.41,14.53-40.54,39.01-36.71,74.19-38.24,81.84s-19.12,41.3-23.71,61.19c-4.59,19.89,7.65,39.77,9.94,61.95s14.51,45.37,17.59,63.48c2.34,13.75,23.51,44.79,36.91,61.01s26.1,27.51,43.74,27.51,51.29,1.59,58.9,2.74,8.99-4.38,17.74-8.52,45.85-15.67,58.52-31.56,23.38-52.42,32.22-81.66,15.64-44.2,22.44-70.03,46.24-144.15,59.16-178.83,20.92-67.52,6.44-85.38"/>
      <path class="cls-1" d="m681.22,561.37c-.19,28.68-9.79,73.75-23.83,98.87-14.04,25.12-35.14,70.54-28.49,125.95"/>
      <path class="cls-1" d="m692.46,611.56c-29.9,12.48-50.86,21.35-65.13,29.47s-26.76,18.14-42.68,26.43c-15.92,8.29-53.6,28.24-75.02,40.06-21.43,11.82-69.58,30.3-69.58,30.3"/>
      <path class="cls-1" d="m553,1393.52c45.35-141.01,52.32-229.38,47.67-279.38s6.74-177.94,56.85-231.4"/>
      <path class="cls-1" d="m507.65,1210.13c10.46-121.56,149.85-330.22,178.68-464.39"/>
      <path class="cls-1" d="m486.72,1237.39c-33.72-83.72-17.44-186.68,33.72-245.66s147.49-151.85,173.52-280.34"/>
      <path class="cls-1" d="m1039.28,305.6c7.71,29.3,52.01,83.17,63.98,129.87s18.84,80.35-7.25,140c-15.28,34.92-50.2,90.21-52.38,146.96s9.82,94.15,17.77,119.32c11.54,36.51-46.82,35.34-77.63,28.09s-117.85,12.9-117.85,12.9c0,0-12.32-6.92-49.25-25.8"/>
      <path class="cls-1" d="m813.78,838.81c8.97,19.03,23.92,73.41,39.98,117.84,16.2,44.81,33.48,79.6,33.48,79.6h6.73c64.23-95.67,71.31-167.98,71.31-167.98,0,0,57.15-72.55,78.52-115.29"/>
      <path class="cls-1" d="m891.38,1058.94c-5.92,0-11.32,5.92-11.58,11.07s2.83,50.44,3.35,51.72,4.12,9.52,11.84,9.52,11.77-5.65,11.09-14.67c-1.34-18-2.35-44.78-3.63-48.38s-5.92-9.26-11.07-9.26Z"/>
      <line class="cls-1" x1="884.18" y1="1132.8" x2="908.11" y2="1131.25"/>
      <polygon class="cls-1" points="891.38 1058.94 887.24 1036.25 893.97 1036.25 891.38 1058.94"/>
      <path class="cls-1" d="m458.4,974.39c124.3,180.28,272.7,400.99,265,494.47-8.76,106.45-8.89,171.66-8.89,220.7,0,37.48-4.28,129.58-21.08,201.02"/>
      <path class="cls-1" d="m1255.49,1185.21c-44.11,68.87-100,148.97-63.77,383.74,24.85,161.02,45.61,269.42,56.2,321.64"/>
      <path class="cls-1" d="m1151.83,1213.1c6.37,68.74,2.98,129.29-91.3,231.8"/>
      <path class="cls-1" d="m1164.92,1890.59c-30.08-172.8-59.3-457.72-54.49-507.8"/>
      <path class="cls-1" d="m1493.21,1043.55c32.78,74.67,57.54,152.24,87.25,207.53,29.71,55.29,44.56,85,53.64,117.18,9.08,32.18,45.39,66.84,43.74,86.65"/>
      <path class="cls-1" d="m657.52,1284.53c-8.97,93.46-49.05,466.67-96.96,606.06"/>
      <path class="cls-1" d="m451.48,998.91c-10.26,117.18-17.9,180.72-13.54,238.49s1.09,208.46-10.92,249.95-78.62,170.34-104.83,267.52c-15.76,58.43-31.91,106.6-42.28,135.72"/>
      <path class="cls-1" d="m198.32,1890.59c10.23-53.61,38.71-201,61.33-299.51,28.08-122.3,56-180.17,61.3-263.19l117.42,47.43"/>
      <line class="cls-1" x1="262.36" y1="1511.25" x2="286.06" y2="1489.68"/>
      <line class="cls-1" x1="437.82" y1="1388.12" x2="636.2" y2="1475.31"/>
      <path class="cls-1" d="m1188.64,1547.73c43.24-51.08,130.77-90.69,130.77-90.69"/>
      <path class="cls-1" d="m1450.37,1560.23c65.37,13.43,182.13-1.33,237.28-93.8"/>
      <path class="cls-1" d="m1690.34,1405.32c6.27,22.39-1.79,73.42-20.59,122.67-18.8,49.25-32.24,91.33-32.24,91.33"/>
      <path class="cls-1" d="m1255.49,1045.44c-2.15,14.21-5.5,29.29,38.65,43.56s103.39,2.96,140.01-25.04c36.62-28,62.92-11.73,67.19-1.48"/>
      <path class="cls-1" d="m1509.48,949.99c23.75,26.74.35,120,9.09,154.95"/>
      <path class="cls-1" d="m1369.04,1454.9c-10.22,16.76-10.58,30.06-9,60.56"/>
      <path class="cls-1" d="m132.04,1100.15c3.16,27.1,10.6,70.19,0,89.44,0,0,21.49,10.08,38.91,24.75s59.71,53.17,115.11,29.34,96.01-64.49,77.49-114.27"/>
      <path class="cls-1" d="m18.54,1446.86c4.9-46.48,4.9-45.33,27.89-70.62s20.12-63.81,35.06-80.48,40.81-61.51,40.81-77.03,1.08-22.09,9.74-29.15"/>
      <path class="cls-1" d="m52.6,1500.46c35.83,28.92,102.91,81.78,197.47,6.53"/>
      <path class="cls-1" d="m414.89,922.81c-8.27-16.29-22.75-30.14,8.14-55.41"/>
      <path class="cls-1" d="m471.24,827.47c24.63-14.11,72.42-29.25,72.42-29.25,0,0-94.62-25.82-98.03-35.58s39.02-24.82,39.02-24.82"/>
      <path class="cls-1" d="m258.51,764.65s7.39-9.81,11.35-12.6,16.31-6.29,27.02-9.71,23.3-11.73,32.15-11.49,24.23,9.78,30.52,10.25,14.62-1.16,23.42,1.24c0,0,3.6,1.55,1.5,10.17s-12.81,23.3-29.82,19.1-23.53-7.92-23.53-7.92c0,0-9.09,1.86-12.35.23l-2.96,7.75"/>
      <path class="cls-1" d="m356.6,772.35c-4.2,7.23-9.96,14.45-9.96,14.45.44,25.88-9.51,40.67-9.51,40.67,0,0,2.43,6.68,0,9.11,0,0,1.55,3.1,4.2,3.1s6.64-6.42,9.29-7.74c0,0,5.79-27.63,12.19-38.87,0,0,2.68-15.73,12.88-26.67"/>
      <path class="cls-1" d="m384.47,752.51c10.5-2.97,19.48-10.84,20.36-23.68s-4.27-7.77-19.7-10.62c-11.38-2.1-13.26-6.57-26.76-6.82s-15.54,4.32-29.34,19.45"/>
      <path class="cls-1" d="m350.63,831.94s28.18,6.59,45.32,20.11"/>
      <path class="cls-1" d="m398.9,845.86c-9.12-6.94-24.46-14.45-46.88-19.63"/>
      <path class="cls-1" d="m761.9,649.82c-5.21,62.98-67.93,122.54-58.78,202.23,6.88,59.86,70.49,104.3,83.65,178.48,13.16,74.18-2.82,127.76-10.34,136.21"/>
      <path class="cls-1" d="m1329.16,672.59c-11.86,1.98-20.6,13.82-22.09,25.2,0,0,.32,3.33-1.1,5.92"/>
      <path class="cls-1" d="m1327.87,670.33c-9.75-1.08-22.86,12.18-22.86,24.37"/>
    </g>
  </g>
</svg>