<?xml version="1.0" encoding="UTF-8"?>
<svg id="Calque_2" data-name="Calque 2" xmlns="http://www.w3.org/2000/svg" viewBox="0 0 339.94 412.71">
  <defs>
    <style>
      .cls-1 {
        fill: #fff;
        stroke-width: 0px;
      }
    </style>
  </defs>
  <g id="Calque_1-2" data-name="Calque 1">
    <path class="cls-1" d="m326.15,254.29c-7.98-18.54-19.86-35.28-34.38-49.26,30.17-31.56,48.18-74.82,46.73-118.85h-.07c-.72-23.53-11.03-46.63-28.21-62.6C285.07-.54,245.11-7.12,213.96,8.33c-29.22,13.76-48.33,45.66-45.19,77.85-10.35-1-20.86.02-30.84,3.13-20.76,6.49-38.46,22.15-47.97,41.98-17.96,36.65-5.91,80.61,24.75,105.13-3.09-.25-6.18-.51-9.27-.75-6.63-.39-14.98-1.4-21.79-1.18-8.7.26-17.52,1.86-25.86,4.73-29.65,10.4-52.13,37.8-56.72,69.06-5.69,35.57,11.47,72.28,42.35,90.84,3.04,2.08,7.82,4.28,11.15,5.93,2.8,1.21,6.02,2.25,8.87,3.39,2.97.76,6.22,1.74,9.2,2.38,2.19.3,7.26,1.24,9.39,1.42,3.06.13,6.43.46,9.47.47,3.65-.19,9.05-.26,12.61-.93,10.43-1.29,20.71-4.82,30.04-9.65.72-.33,2.11-1.09,2.77-1.52,2.57-1.66,5.61-3.21,7.99-5.13,11.14-7.9,20.42-18.53,27.01-30.47.42-.67,1.15-2.06,1.47-2.79,0,0,.37-.79.83-1.77,3.03,7.01,7.07,13.6,12.01,19.44,42.35,49.34,121.38,34.29,146.43-24.79,13.37-31.22,6.57-70.49-6.52-100.79ZM117.77,112.87c12.26-14.47,30.63-24.45,51-26.67.03.33.05.66.09.99,6.26-62.11,80.88-92.28,124.14-46.38,11.43,12.47,17.61,28.97,17.31,45.38h-.04c-.42,18.56-4.5,36.83-11.7,53.71-7.33,17.15-18.07,32.72-31.29,45.8-27.05-17.32-59.2-26.22-91.37-22.7-1.84-25.33-4.11-50.62-7.05-75.81-1.69,14.09-3.13,28.18-4.34,42.28-2.82,32.29-4.93,64.8-6.55,97.33-12.92-1.8-25.14-6.81-35.44-16.48-27.41-24.22-29.44-69.51-4.76-97.44Zm58.3,52.35c27.8,5.43,53.49,17.4,74.74,34.51-8.75,6.41-18.2,11.87-28.21,16.14-13.18,5.37-28.03,9.78-42.86,11.22-1.01-20.63-2.2-41.26-3.68-61.87Zm-21.51,154.45c-.63,28.76-22.47,55.19-50.57,60.68-1.99.41-4.25.62-6.26,1.03-1.44.12-4.86.28-6.35.38-2.05-.02-4.3-.24-6.36-.26-1.44-.16-4.8-.69-6.29-.89-1.99-.44-4.15-1.1-6.16-1.52-1.92-.72-4.09-1.38-5.99-2.11-2.22-1.12-5.57-2.37-7.59-3.8-2.19-1.13-5.1-3.23-7.09-4.72-24.5-18.83-32-52.56-18.71-80.44,4.68-9.52,11.48-17.93,19.84-24.55,1.3-.93,4.3-3.05,5.68-3.98,1.41-.74,4.72-2.73,6.1-3.39,6.35-3.15,13.08-5.23,20.16-6.46,5.46-.87,14.65-1.42,20.47-1.86,7.94-.62,15.87-1.29,23.8-1.99,1.57.8,3.17,1.58,4.81,2.29,7.12,3.21,14.76,5.33,22.67,6.55-.9,21.71-1.61,43.42-2.16,65.04Zm136.64,44.36c-24.55,26.42-66.52,27.8-94.15,5.05-7.24-5.82-13.26-12.97-17.93-20.99.06-.16.11-.32.17-.47.63-2.07,1.72-6.98,2.24-9.17.55-2.99.81-6.31,1.28-9.32.88-16.09-.72-35.46-.9-51.69-.28-7.22-.57-14.44-.87-21.67,18.53-.93,37.2-5.56,53.18-11.87,14.08-5.47,27.18-13.02,39.02-22.17,16.5,19.73,28.22,43.56,33.11,70.36,4.81,26.42,4.21,51.26-15.16,71.94Z"/>
  </g>
</svg>