<?xml version="1.0" encoding="UTF-8"?>
<svg id="Calque_2" data-name="Calque 2" xmlns="http://www.w3.org/2000/svg" viewBox="0 0 403.97 406.76">
  <defs>
    <style>
      .cls-1 {
        fill: #fff;
        stroke-width: 0px;
      }
    </style>
  </defs>
  <g id="Calque_1-2" data-name="Calque 1">
    <path class="cls-1" d="m321.09,185.88c32.58-21.08,65.63-48.39,65.63-100.13C386.72,18.68,323,0,288.03,0h-94.38c7.67,3.35,12.46,13.41,12.46,37.37v252.99c-6.55,8.93-12.32,17.95-17.35,27.12-1.08,1.96-2.11,3.93-3.12,5.91-24.72,43.45-37.16,77.59-89.34,77.59h-21.56c-11.5,0-14.85-15.33-14.85-31.62V37.37c0-23.95,4.79-34.01,12.46-37.37H0c7.67,3.35,12.46,13.41,12.46,37.37v331.99c0,23.95-4.79,33.53-12.46,37.37h168.55l4.35.03s0-.02,0-.03h2.91c-1.93-8.68-1.32-19.98.63-31.91,3.77-17.88,10.51-35.85,19.99-53.12,2.95-5.38,6.18-10.7,9.67-15.99v63.66c0,23.95-4.79,34.01-12.46,37.37h89.59c83.84,0,120.73-44.07,120.73-102.04v-1.92c-.96-62.76-46.95-93.42-82.88-116.89ZM253.54,37.37c0-16.29.48-31.62,11.5-31.62h.96c49.82,0,72.82,34.49,72.82,78.09,0,40.24-17.73,67.07-37.37,89.11-13.89-10.06-23.95-19.16-23.95-30.66,0-2.87,1.92,2.4,7.19,2.4,3.83,0,6.71-2.4,6.71-6.71,0-2.87-2.4-6.23-7.19-6.23-5.75,0-10.54,5.27-10.54,13.41,0,13.41,8.14,24.91,19.64,36.89-16.29,16.77-28.31,28.72-39.76,45.68V37.37Zm11.98,363.61h-.48c-10.54,0-11.5-15.33-11.5-31.62v-118.33c0-24.43,24.43-38.8,52.22-56.05,23.47,23.95,50.78,53.66,50.78,109.71,0,89.59-62.76,96.29-91.02,96.29Z"/>
  </g>
</svg>